<svg xmlns="http://www.w3.org/2000/svg" version="1.1" xmlns:xlink="http://www.w3.org/1999/xlink" xmlns:svgjs="http://svgjs.dev/svgjs" viewBox="0 0 12.457917718752135 10.702418874142385"><g transform="matrix(1,0,0,1,0.9616828583995058,8.66073601574288)"><rect width="12.457917718752135" height="12.457917718752135" x="-0.9616828583995058" y="-9.538485438047756" fill="#3a868f"></rect><g><path d=" M 0.384 0.5474999999999998 L 0.384 1.0709999999999997 L 0.0915 1.0709999999999997 L 0.0915 0.005999999999999783 L 0.3195 0.005999999999999783 L 0.747 0.5474999999999998 L 0.747 0.005999999999999783 L 1.0395 0.005999999999999783 L 1.0395 1.0709999999999997 L 0.807 1.0709999999999997 L 0.384 0.5474999999999998 M 1.71754248046875 1.0799999999999996 Q 1.59604248046875 1.0799999999999996 1.49704248046875 1.0342499999999997 Q 1.3980424804687501 0.9884999999999997 1.32679248046875 0.9112499999999997 Q 1.25554248046875 0.8339999999999997 1.2172924804687502 0.7372499999999997 Q 1.17904248046875 0.6404999999999997 1.17904248046875 0.5369999999999997 Q 1.17904248046875 0.43049999999999977 1.21954248046875 0.3344999999999997 Q 1.2600424804687502 0.2384999999999997 1.33279248046875 0.16274999999999973 Q 1.4055424804687502 0.08699999999999974 1.5052924804687502 0.04349999999999965 Q 1.6050424804687502 -2.220446049250313e-16 1.7235424804687502 -2.220446049250313e-16 Q 1.8450424804687502 -2.220446049250313e-16 1.9440424804687502 0.045749999999999735 Q 2.04304248046875 0.09149999999999969 2.11354248046875 0.16949999999999976 Q 2.18404248046875 0.24749999999999972 2.22229248046875 0.3442499999999997 Q 2.26054248046875 0.4409999999999997 2.26054248046875 0.5429999999999997 Q 2.26054248046875 0.6479999999999997 2.2207924804687504 0.7439999999999998 Q 2.18104248046875 0.8399999999999997 2.10829248046875 0.9157499999999997 Q 2.03554248046875 0.9914999999999997 1.93654248046875 1.0357499999999997 Q 1.8375424804687501 1.0799999999999996 1.71754248046875 1.0799999999999996 M 1.4760424804687502 0.5399999999999997 Q 1.4760424804687502 0.5939999999999996 1.49104248046875 0.6442499999999998 Q 1.50604248046875 0.6944999999999997 1.5360424804687502 0.7342499999999997 Q 1.56604248046875 0.7739999999999998 1.61179248046875 0.7972499999999998 Q 1.6575424804687502 0.8204999999999998 1.7205424804687501 0.8204999999999998 Q 1.7835424804687503 0.8204999999999998 1.8300424804687503 0.7964999999999998 Q 1.8765424804687503 0.7724999999999997 1.90579248046875 0.7312499999999997 Q 1.9350424804687503 0.6899999999999997 1.9492924804687501 0.6397499999999997 Q 1.96354248046875 0.5894999999999997 1.96354248046875 0.5369999999999997 Q 1.96354248046875 0.48299999999999976 1.9485424804687501 0.43349999999999966 Q 1.9335424804687502 0.3839999999999997 1.9035424804687502 0.3442499999999997 Q 1.8735424804687502 0.30449999999999966 1.8270424804687502 0.2819999999999997 Q 1.7805424804687502 0.25949999999999973 1.71904248046875 0.25949999999999973 Q 1.6560424804687501 0.25949999999999973 1.6102924804687502 0.28349999999999975 Q 1.56454248046875 0.30749999999999966 1.5345424804687502 0.3472499999999997 Q 1.5045424804687502 0.3869999999999997 1.49029248046875 0.4372499999999997 Q 1.4760424804687502 0.4874999999999997 1.4760424804687502 0.5399999999999997 M 2.5635417480468754 0.005999999999999783 L 2.7720417480468753 0.7334999999999997 L 2.977541748046875 0.005999999999999783 L 3.285041748046875 0.005999999999999783 L 2.917541748046875 1.0709999999999997 L 2.626541748046875 1.0709999999999997 L 2.2545417480468752 0.005999999999999783 L 2.5635417480468754 0.005999999999999783 M 4.140037353515625 0.8159999999999997 L 4.140037353515625 1.0709999999999997 L 3.3810373535156253 1.0709999999999997 L 3.3810373535156253 0.005999999999999783 L 4.126537353515626 0.005999999999999783 L 4.126537353515626 0.2609999999999997 L 3.6735373535156253 0.2609999999999997 L 3.6735373535156253 0.4109999999999997 L 4.060537353515626 0.4109999999999997 L 4.060537353515626 0.6479999999999997 L 3.6735373535156253 0.6479999999999997 L 3.6735373535156253 0.8159999999999997 L 4.140037353515625 0.8159999999999997 M 4.2915146484375 1.0709999999999997 L 4.2915146484375 0.005999999999999783 L 4.584014648437501 0.005999999999999783 L 4.584014648437501 0.8159999999999997 L 5.0670146484375005 0.8159999999999997 L 5.0670146484375005 1.0709999999999997 L 4.2915146484375 1.0709999999999997 M 6.4350234375 0.005999999999999783 L 6.4350234375 1.0709999999999997 L 6.1425234374999995 1.0709999999999997 L 6.1425234374999995 0.6539999999999997 L 5.7855234375 0.6539999999999997 L 5.7855234375 1.0709999999999997 L 5.4930234375 1.0709999999999997 L 5.4930234375 0.005999999999999783 L 5.7855234375 0.005999999999999783 L 5.7855234375 0.3989999999999997 L 6.1425234374999995 0.3989999999999997 L 6.1425234374999995 0.005999999999999783 L 6.4350234375 0.005999999999999783 M 6.879023437500001 0.005999999999999783 L 7.206023437500001 0.005999999999999783 L 7.5450234375 1.0709999999999997 L 7.2480234375000006 1.0709999999999997 L 7.183523437500001 0.8624999999999997 L 6.900023437500001 0.8624999999999997 L 6.8370234375 1.0709999999999997 L 6.5385234375 1.0709999999999997 L 6.879023437500001 0.005999999999999783 M 7.137023437500001 0.6674999999999998 L 7.042523437500001 0.29249999999999976 L 6.943523437500001 0.6674999999999998 L 7.137023437500001 0.6674999999999998 M 7.76703662109375 0.005999999999999783 L 7.975536621093751 0.7334999999999997 L 8.18103662109375 0.005999999999999783 L 8.48853662109375 0.005999999999999783 L 8.12103662109375 1.0709999999999997 L 7.83003662109375 1.0709999999999997 L 7.4580366210937505 0.005999999999999783 L 7.76703662109375 0.005999999999999783 M 9.3435322265625 0.8159999999999997 L 9.3435322265625 1.0709999999999997 L 8.5845322265625 1.0709999999999997 L 8.5845322265625 0.005999999999999783 L 9.3300322265625 0.005999999999999783 L 9.3300322265625 0.2609999999999997 L 8.8770322265625 0.2609999999999997 L 8.8770322265625 0.4109999999999997 L 9.2640322265625 0.4109999999999997 L 9.2640322265625 0.6479999999999997 L 8.8770322265625 0.6479999999999997 L 8.8770322265625 0.8159999999999997 L 9.3435322265625 0.8159999999999997 M 9.787509521484376 0.5474999999999998 L 9.787509521484376 1.0709999999999997 L 9.495009521484375 1.0709999999999997 L 9.495009521484375 0.005999999999999783 L 9.723009521484375 0.005999999999999783 L 10.150509521484375 0.5474999999999998 L 10.150509521484375 0.005999999999999783 L 10.443009521484376 0.005999999999999783 L 10.443009521484376 1.0709999999999997 L 10.210509521484376 1.0709999999999997 L 9.787509521484376 0.5474999999999998" fill="#ffffff" fill-rule="nonzero"></path></g><g></g><g clip-path="url(#SvgjsClipPath1002)"><path d=" M 0 -6.779124258662866 L 7.449053157343374 -6.779124258662866 L 7.449053157343374 -1.1699288986805074 L 0 -1.1699288986805074 Z" fill="#ffffff" transform="matrix(1,0,0,1,0,0)" fill-rule="nonzero" mask="url(#maskedMgText-1391549c-8e37-4c3c-8bf3-159586db8e2e)"></path></g></g><defs><clipPath id="SvgjsClipPath1002"><path d=" M 0 -7.699053157343374 h 7.449053157343374 v 7.449053157343374 h -7.449053157343374 Z"></path></clipPath><mask id="maskedMgText-1391549c-8e37-4c3c-8bf3-159586db8e2e"><path d=" M 7.329259205238561 -3.410478096163251 C 7.316184678749509 -3.3736384759419633 7.303370897802975 -3.336761606357459 7.293015574828739 -3.307893349864539 C 7.235465308658984 -3.283308770141537 7.174823345342244 -3.31370425052634 7.137387735309489 -3.261480643296568 L 7.0003100786721415 -3.2633431114574014 C 6.99360519329314 -3.349016646855744 6.986900307914139 -3.435062675886253 6.980493417440872 -3.5195442316616625 C 6.985075089116521 -3.5253923816866792 6.988427531806022 -3.532767755603581 6.9927112085759395 -3.533698989683997 C 7.020722729714876 -3.539211895440064 7.049665484934229 -3.5407763686951648 7.077081016261699 -3.5485987349706654 C 7.097416928463429 -3.5567232596782294 7.116812837611736 -3.567026946122114 7.134929277337188 -3.5793294596244185 C 7.174823345342243 -3.6078997212116057 7.202574120938663 -3.640753659568709 7.186407897302627 -3.6963669588511983 C 7.182628550748273 -3.707641925127627 7.1827729528351965 -3.7198635926663206 7.186817640298009 -3.731046116005919 C 7.1908389955670025 -3.7421945414781295 7.198537806298174 -3.751640693211427 7.208645767142979 -3.757828408158705 C 7.241834949769034 -3.7722811610867732 7.242766183849451 -3.799622193687809 7.236992532550866 -3.8297196791668795 C 7.23941374115995 -3.8647340805905497 7.241536954863301 -3.90008372628317 7.2439954128355994 -3.9350981277068406 C 7.242132944674765 -3.96150792622746 7.240642970146099 -3.9879549741112963 7.239115746254216 -4.014364772631915 C 7.239115746254216 -4.04788919952692 7.2485398351480335 -4.088118511800924 7.233938084767098 -4.113299081335393 C 7.213288767811049 -4.140741996828556 7.183441603772607 -4.159824609902313 7.149866271987072 -4.167049912457049 C 7.099595621347006 -4.176826393420569 7.048698806453484 -4.183050019599772 6.997553625794109 -4.185674594065384 C 6.979193614519882 -4.198310930288885 6.960073389256557 -4.209805457382776 6.9403013545300825 -4.2200930056775885 C 6.862636432223324 -4.255740646275942 6.861705198142907 -4.256336636087409 6.867516098804708 -4.3694257028132215 L 6.918696723864417 -4.316941350040933 C 6.953642172373807 -4.359040679569561 6.969233565373418 -4.413914810352233 6.9616452396532384 -4.468099265974182 C 6.977476219020323 -4.529560715281689 6.931175260542001 -4.576122419302527 6.92234716145965 -4.6413833036581345 L 6.997888870063058 -4.785799084849167 C 7.035957719270494 -4.787326308741051 7.078272995884633 -4.776561242771432 7.103565313508752 -4.819584257286687 C 7.142863391702339 -4.872441103691143 7.14040493373004 -4.9344985428101165 7.141336167810457 -4.995624747848673 C 7.178585531027126 -5.023599019624393 7.168118459963242 -5.066398537960347 7.174525350436509 -5.104094893535618 C 7.1925980504383915 -5.113934036368476 7.207573112608596 -5.128612434947022 7.217771861131064 -5.146484668876189 C 7.227981784933242 -5.164419478663352 7.233047190306076 -5.184822879948833 7.232410860875216 -5.2054504108481785 C 7.223880756698598 -5.286281529028354 7.262880839986453 -5.3437200471084605 7.301247684099624 -5.4045482572412835 C 7.321060992142076 -5.435549151528376 7.314061201970533 -5.476531793984343 7.28508146046359 -5.499198889174844 L 7.248539835148035 -5.560623089119134 C 7.252525517012218 -5.5744426028725185 7.263439580434704 -5.591353813772887 7.259193153028003 -5.6015973886574715 C 7.251430993898475 -5.619419958875453 7.239696399218485 -5.635231720002345 7.224886489505449 -5.64782384840936 C 7.210147480701699 -5.660389411064049 7.192710353634017 -5.669388396232019 7.173929360625044 -5.67412189884033 C 7.152585475501892 -5.691629099552165 7.132210073822374 -5.710961519061617 7.109674209076288 -5.7262710073436685 C 7.074429013483423 -5.745176197029555 7.047174627424407 -5.776146489193658 7.0329032714867274 -5.813509015997111 C 7.037484943162379 -5.816898708049828 7.045381808164314 -5.819655160927861 7.046313042244731 -5.823976087060996 C 7.074622558289401 -5.968987858063494 7.074622558289401 -5.968987858063494 7.028321599811078 -6.086658596464957 C 7.017668281931111 -6.11336638989131 7.008542187943027 -6.140409427586613 6.997888870063058 -6.1671544703761825 C 7.050037978566398 -6.219080082700222 7.040502141582929 -6.2792750536583615 7.021318719526344 -6.340736502965869 C 7.016141058039226 -6.357014474691553 7.001241312752558 -6.3748196703091216 7.004891750347792 -6.38804319425104 C 7.022547948512493 -6.45136711171938 7.044785818352846 -6.513722545744087 7.065794459207049 -6.581739882977728 L 6.923539141082584 -6.654264393160586 C 6.835201800381378 -6.693047762201465 6.742572489786358 -6.7212066724957396 6.647595858373487 -6.738149959124528 C 6.607927536081652 -6.772065331092554 6.553802360613108 -6.78362754490963 6.503738817630704 -6.768880683778281 L 6.3286668105123525 -6.768880683778281 C 6.265603638586529 -6.770705902575898 6.197996044348272 -6.789144337368151 6.141041767989982 -6.771637136656315 C 6.040207741762455 -6.740906412002562 5.937250501831577 -6.746456567121846 5.836453724967265 -6.730476590301894 C 5.768899432918072 -6.735912476337554 5.700911287636989 -6.73103913431482 5.6348229218754255 -6.716023837373826 C 5.565054864570603 -6.702502318526174 5.489848400236145 -6.716023837373826 5.417323890053287 -6.703433552606591 C 5.408495790970936 -6.709877692443075 5.3990717020771175 -6.72246797721031 5.3905415979005005 -6.722058234214926 C 5.317110635564282 -6.724924631216186 5.247002192266572 -6.691341167325913 5.203214550283864 -6.632324518225967 C 5.192455181920066 -6.634172740563295 5.181521227200295 -6.634797537975853 5.170621357469276 -6.6341869863868 C 5.1462602739255745 -6.6649177110405535 5.122495180193338 -6.639699892142867 5.098432091555369 -6.6341869863868 C 5.0070594035848766 -6.6341869863868 4.915686715614383 -6.632026523320233 4.82219081394054 -6.6302013045226165 C 4.776006530965358 -6.63540260896586 4.729580536144581 -6.622756722316917 4.69241403249366 -6.594851658829996 C 4.674275218393105 -6.580098663342375 4.649261676377415 -6.57711153890456 4.628158880944903 -6.587178290007362 C 4.567256172085646 -6.610198396475265 4.5209552136073246 -6.577046463212428 4.466720140763852 -6.554622346555991 C 4.412485067920379 -6.532198229899556 4.343052254884505 -6.576115229132011 4.290381655296133 -6.523891621902238 L 4.184667962487222 -6.493160897248485 C 4.1207108058441975 -6.518341466782954 4.057051644106908 -6.538940364641773 3.998421146403868 -6.479937373306567 L 3.998421146403868 -6.414080499139493 C 3.998421146403868 -6.410690807086776 3.989295052415783 -6.407636359303009 3.9844153858343994 -6.404544662156026 C 3.86469593245602 -6.498562054914903 3.86469593245602 -6.498562054914903 3.763265916417026 -6.454943050588181 C 3.6879173331106068 -6.457941392068918 3.612634934993292 -6.447536302699377 3.540924467376719 -6.424212325934428 C 3.463607958046971 -6.405962751075652 3.385233773349407 -6.39252717655607 3.306253479111695 -6.383983013660424 L 3.016565181375645 -6.334217864402951 C 2.9310403433223526 -6.324828807884547 2.8460507817765106 -6.311078302461828 2.7619285344264757 -6.293020068685312 C 2.718324073486587 -6.279052632998668 2.6727979849571333 -6.2720138120222755 2.6270113408557028 -6.272160425283977 C 2.489374943770103 -6.279126056205495 2.3681655158630566 -6.227833683056139 2.2498615382869103 -6.166074238842899 C 2.178305511547686 -6.166074238842899 2.104887016647628 -6.129197369258396 2.036646183234687 -6.1772490478079005 C 1.9775686931730476 -6.1649567579464 1.911786317732407 -6.179409510874468 1.8609036875784346 -6.133332048575446 C 1.8510131001466823 -6.13287993381763 1.8412511166500047 -6.130907435221776 1.8319609323590813 -6.1274838985504285 L 1.7605166537095074 -6.1274838985504285 C 1.7317010413398375 -6.1313204930696745 1.7025040004211174 -6.1313204930696745 1.6736883880514475 -6.1274838985504285 C 1.587791356473805 -6.1053577767997265 1.5040547879627295 -6.1179480615669615 1.4178597614793533 -6.123758962228762 C 1.3429730031807154 -6.130138317900474 1.2690195347021649 -6.1447666137768895 1.1973435312366623 -6.167377966555483 C 1.1644994658308612 -6.178631778424427 1.131030647615832 -6.1879722029801645 1.097105494820604 -6.1953522383312025 C 1.0829224711402001 -6.199009235524798 1.0679378370668475 -6.1979902281510215 1.0543804752110808 -6.192446788000303 C 1.0407604302267661 -6.186898291097414 1.0292646409478174 -6.1771510100629365 1.0215637862171938 -6.164621513677449 C 0.9911310564691739 -6.152329223815948 0.98714537460499 -6.123647214139112 0.9819677131178729 -6.096417929627726 C 0.954965478309378 -6.090636559368665 0.9290608431669334 -6.080576506886162 0.905234024891531 -6.0666184390543885 C 0.8427801082181263 -6.014146447174858 0.8074906203879448 -5.936183529767419 0.8092796652453875 -5.854632312988316 C 0.8130303079097534 -5.792056809737164 0.8041631293838882 -5.729365857559296 0.7832051109937181 -5.670285214429012 C 0.775402344118358 -5.636768165345622 0.7722314585059096 -5.602339616818366 0.7737810220999004 -5.5679612136728185 C 0.6922174795039888 -5.524998319625913 0.6009364681403226 -5.50383970453754 0.5087890521765048 -5.506537013728528 C 0.48640117945641737 -5.507806378754706 0.463945788949629 -5.505938230689094 0.44207544265544785 -5.500986858609244 C 0.37584607485620736 -5.482846418722725 0.310063699415567 -5.461577032326007 0.23392600100069205 -5.43814718286272 C 0.2132153550522231 -5.418181524178585 0.1888542715085204 -5.37672298291843 0.15413786499058335 -5.364728687962662 C 0.07278525572537453 -5.3371641591823265 0.04507172949217164 -5.267731346146451 0 -5.206903136013629 C 0.014303755475201685 -5.169393027254442 0.026819541516002854 -5.137470322977755 0.039000083287854315 -5.105212374432118 L 0.039000083287854315 -5.069378487017681 C 0.03341388065900053 -5.04084330507838 0.04698484030931249 -5.011982397555384 0.07252451018285777 -4.998083205820973 C 0.0764737755619267 -4.987151817184749 0.0819004477817169 -4.976812314687458 0.08865348445567633 -4.967352481167219 C 0.18039639809925223 -4.876983748790205 0.240495513275216 -4.759398523445928 0.26000055525236143 -4.632108212217183 C 0.26000055525236143 -4.622572375233716 0.27400631582182977 -4.614601011505348 0.2813071910122973 -4.606033657965513 L 0.28376564898459744 -4.537494829646839 C 0.2721810970242129 -4.501884438411702 0.2602985501580948 -4.466236797813348 0.24871399819771023 -4.430589157214994 C 0.22588013854589128 -4.3593311253815035 0.19876260212415486 -4.289265073170946 0.18140439886518656 -4.215511334001938 C 0.16476799119093966 -4.1646970989741 0.17454607191110427 -4.108934101495678 0.2074789531168557 -4.066811876040988 C 0.23673507971595908 -4.030097558859473 0.25286371346383585 -3.9846489047374076 0.25329566987336083 -3.937705583132008 C 0.25329566987336083 -3.923252830203939 0.27192035148169613 -3.9103645505309714 0.28164243528124744 -3.8967312835936703 C 0.2807095788368812 -3.8855759429960592 0.2807095788368812 -3.8743621972962767 0.28164243528124744 -3.8632068566986666 C 0.2702686022020693 -3.8553556393316786 0.261582327634748 -3.8441987178065857 0.2567598606525112 -3.8312469030587626 C 0.25191623415277653 -3.8182653709519143 0.2511367327732714 -3.8041174209138955 0.254524898859511 -3.7906823465158084 L 0.22588013854589128 -3.7292581465715187 C 0.2690860059613889 -3.647456257360904 0.3245595581901819 -3.572750366259311 0.3903733265107081 -3.507736183521979 C 0.43239060821911335 -3.427836299422219 0.5000354518205876 -3.361495183533328 0.5018606706182043 -3.261890386291951 C 0.5018606706182043 -3.2354805877713315 0.5417547386232586 -3.209964773967912 0.5627633794774611 -3.1841882146219755 C 0.5731187024516955 -3.1703314515053744 0.5807175725478964 -3.150663787726972 0.5932333585886975 -3.143623658079022 C 0.6439611290639062 -3.1142841133614634 0.6837416754587529 -3.0692073403755873 0.7065459214938099 -3.0152251030711583 L 0.6523108486503373 -2.977416999406237 L 0.600534233779165 -2.939310900835583 C 0.5798084877019984 -2.910444080146798 0.5438267323372359 -2.8967730666939 0.5091615458086718 -2.904594494317646 C 0.4629585492160988 -2.9057711200217144 0.4178738616636579 -2.89028895898831 0.38214121723982486 -2.860975489990924 C 0.3417133902191296 -2.8296024821145744 0.3037333952049224 -2.7951963423689175 0.26853065942897825 -2.7580554994232624 C 0.25719511049040644 -2.7386473301871965 0.2496132927895709 -2.7172792406336748 0.24618104149897668 -2.6950668262238726 C 0.2087081821030059 -2.691677134171156 0.16605766121991783 -2.7012129711546238 0.14385704074278238 -2.6566627327474843 C 0.12463636932298039 -2.6068975834900128 0.1319744938766645 -2.5743416400386425 0.1764129841941524 -2.5151151525241358 C 0.1889287702349538 -2.480696740911932 0.2014073069125386 -2.4462783292997288 0.21418383849585654 -2.4115619227817917 C 0.24465381760709315 -2.3559486234993026 0.32220699182420187 -2.3740890633858207 0.3552099276341718 -2.3194069981837484 C 0.3882128634441422 -2.264724932981675 0.45950814464084977 -2.2770172228431766 0.52283206210919 -2.24598850328369 C 0.5164251716359225 -2.15379632932243 0.5873852085636804 -2.1255240626409773 0.6611016983694717 -2.0997475032950406 C 0.6915716774807084 -2.0889824373254227 0.7220044072287284 -2.12369884384336 0.7169757431944777 -2.1636301612116315 C 0.7142178777495984 -2.1749919060738625 0.7102336469606148 -2.1860203568157828 0.7050931963283595 -2.1965213489319515 C 0.7636609974124839 -2.2592095010895474 0.8016086857077758 -2.3383419363939133 0.8138240875578213 -2.423258222831825 C 0.8165432910726385 -2.442925886610228 0.8351307233177572 -2.460731082227797 0.846119285466675 -2.4794675119257823 C 0.8585978221442598 -2.468702445956164 0.8698471298356945 -2.4487367872720283 0.8833686486833459 -2.4487367872720283 C 0.9704949092471385 -2.4364444974105277 0.9921367892760244 -2.379937213410838 0.9863258886142235 -2.302495787283379 L 0.8145318254589384 -2.1795728886683663 C 0.8514086950434423 -2.146383706042312 0.8797182110881122 -2.1209051416021096 0.9059045134294316 -2.096320561879107 C 0.9350243305367061 -2.1178148148521285 0.9655639386211051 -2.1373158604382136 0.997314450763142 -2.15469031403963 C 1.0345638139798123 -2.1716015249399976 1.0703977013942496 -2.1147589966713585 1.1136442120888042 -2.149475403189296 C 1.1173691484104715 -2.1632949169426805 1.1218763213596885 -2.1801688784798325 1.126122748766389 -2.1961488552997843 C 1.1514672585657517 -2.20736057912993 1.1779069427733369 -2.2159116573557074 1.2050169000592978 -2.221664669103203 C 1.2306072125891503 -2.2244211219812375 1.2580227439166198 -2.1909339444494504 1.2829798172717894 -2.2164497582528697 C 1.313449796383026 -2.2471804829066238 1.2912119265426734 -2.2778739581971603 1.2829798172717894 -2.311361135728947 C 1.2807450873211805 -2.3272629832435743 1.2807450873211805 -2.343399218674175 1.2829798172717894 -2.3593010661888023 L 1.335389671317645 -2.3725245901307206 C 1.3524498796708802 -2.3141548379701984 1.3524498796708802 -2.3141548379701984 1.3895874947979008 -2.339000163235717 L 1.4425933386552234 -2.373716569753654 C 1.4421267997198335 -2.356782998676354 1.4391517427656089 -2.34001221348292 1.4337652395728726 -2.3239514204961824 C 1.41237257484426 -2.2898063109277196 1.4116697217659153 -2.2466167064604843 1.4319400207752553 -2.2117935878507864 C 1.4376289235740938 -2.1958204456878887 1.4405147515427434 -2.178984348892623 1.4404701249518728 -2.1620284385933153 C 1.4264045370702445 -2.162773768055503 1.41234013475315 -2.1605397113697555 1.3991978305078019 -2.1554725506671804 C 1.386033173486552 -2.150381955485712 1.3740803767861358 -2.142591066765908 1.364108930357698 -2.132601441652145 C 1.3438089677000318 -2.1123028604023384 1.3329923678539735 -2.084396032799508 1.3343094397843616 -2.0557187559729364 C 1.286518506777373 -2.037280321180684 1.2377590903267515 -2.020369110280315 1.1905641471312294 -1.9995094668789806 C 1.1433692039357075 -1.9786498234776446 1.0788160574812173 -1.9853547088566454 1.0501340478043808 -1.925010740445639 C 1.0775495791318503 -1.911787216503721 1.111074006026854 -1.9053430766672372 1.126904985393939 -1.8853774179831015 C 1.1484480823475562 -1.853808938815051 1.16633094482416 -1.8198927342297946 1.1802088241569952 -1.7842826462130574 C 1.2098218256437934 -1.788997422889138 1.2399942943902065 -1.788997422889138 1.2696072958770048 -1.7842826462130574 C 1.3139778936959394 -1.766510392215995 1.36473750690238 -1.7788524732343616 1.3959943852711683 -1.8150133708668106 C 1.4231119216929047 -1.8398959454955466 1.4499314632089075 -1.8168385896644272 1.4767137553616938 -1.8097984600164772 L 1.6116681982956915 -1.77508205349854 C 1.6558086937074463 -1.801156607750209 1.6993904486709512 -1.8281996454455118 1.7438289389884394 -1.8533057162535487 C 1.767964515815728 -1.8705393929929075 1.799348590494747 -1.8739150877941162 1.826597024055881 -1.862208314062332 C 1.9194969359182579 -1.8179560705609283 1.9789096702488478 -1.862208314062333 2.0252106287271694 -1.939947735095524 C 2.0279298322419863 -1.9445294067711747 2.034634717620987 -1.946689869837742 2.039514384202371 -1.9497443176215086 C 2.0520104369939025 -1.9424160111034747 2.0619567243328634 -1.9314295891408317 2.068010147063124 -1.918268605703422 C 2.074110887433136 -1.9050803568371064 2.0760719435482566 -1.8903529552838187 2.0736348009088417 -1.8760278278157183 C 2.0708783480308077 -1.843471884364348 2.067227910435574 -1.8108786915497612 2.064173462651807 -1.7801852162592242 C 2.1284658635637808 -1.744835570566603 2.189070577517304 -1.7144400901818013 2.2509045204569773 -1.726695130680084 C 2.3456296511169707 -1.74531981228842 2.437151336540331 -1.7798499719902736 2.530498240761307 -1.8075262488602597 C 2.5344331699462277 -1.7747081767023625 2.5301449772756426 -1.7414266813485675 2.518019704083723 -1.710677904496916 C 2.505999028067374 -1.67984659665931 2.4864128291561634 -1.6525360825463604 2.461065427725433 -1.631262262118974 C 2.3967730268134595 -1.5791131536156362 2.3087527815324664 -1.5891704816841372 2.2383887344161755 -1.5532248461800497 C 2.232913078023325 -1.5102018316647952 2.2277354165362073 -1.4712762471033747 2.2225577550490905 -1.4303019475650363 C 2.2410825973077415 -1.4147745482283982 2.261526108240327 -1.401692203510362 2.283385965181914 -1.391376363003615 C 2.304717197022278 -1.382308414630419 2.3287128288865486 -1.3817618474601767 2.3504348189719213 -1.3898491391117327 C 2.4253432884006454 -1.4368578354911712 2.49477610143652 -1.3962932789482165 2.5660713826332278 -1.3830697550062983 C 2.5703743116513884 -1.3274817609200324 2.597908002407257 -1.276282078600918 2.641911086142369 -1.2420436658679836 L 2.7728798472121836 -1.2420436658679836 C 2.8596708635070263 -1.24420412893455 2.9437426762870524 -1.240218447070366 3.0217428428627606 -1.191980521704778 C 3.073606836924526 -1.1654212986726824 3.1343748401436144 -1.16239646279816 3.1886199900734447 -1.1836739137074606 C 3.2263908443751497 -1.1948487226724618 3.26632216174342 -1.1993558956216779 3.3052849956680586 -1.2067312695385795 C 3.3217492142098264 -1.2122441752946465 3.340634641360679 -1.2257656941422974 3.3546404019301477 -1.221631014825248 C 3.4134198970860536 -1.205017798830613 3.465829751131909 -1.2237914778918144 3.5227840274901983 -1.2354505285786335 C 3.601640929419891 -1.251728500304318 3.677480632929032 -1.2913245734036387 3.761887689978008 -1.276424828116971 C 3.778947898331243 -1.245731352826433 3.787962244229677 -1.21097769694528 3.822790398837264 -1.1931725013277115 L 3.9613952793664957 -1.2199175441172798 C 3.9637602846088287 -1.252800713390096 3.9760183692080124 -1.2841990699163928 3.9965586782430336 -1.3099865043751908 C 4.016992540725433 -1.3356725920964951 4.04477511699978 -1.3545148444808746 4.076197816800275 -1.3639980810393624 C 4.138962993820366 -1.3851929687096476 4.183103489232121 -1.4614051658509561 4.2624446328836285 -1.429147217305319 C 4.306585128295383 -1.459840692595856 4.314593741386968 -1.5252878237675453 4.376949175411675 -1.5371703706336648 C 4.387496883365625 -1.5252444936322336 4.39970269456769 -1.5148952703622394 4.413192805821495 -1.5064396459799116 C 4.4741327640439685 -1.4757089213261585 4.5127976030628725 -1.4910929083346431 4.535035472903225 -1.552852352547883 C 4.540511129296076 -1.569428319179302 4.538983905404192 -1.591554440930004 4.549339228378427 -1.6022822575364053 C 4.566980200938289 -1.616175003937225 4.586460475418377 -1.6275573007376876 4.607224738817133 -1.6361046793371408 C 4.648199038355471 -1.6474657351182262 4.690067322611009 -1.6572995670074269 4.729067405898863 -1.6711190807608123 C 4.747994389397354 -1.6795780402684342 4.766047207173852 -1.6898707663676813 4.782967234473386 -1.7018498054145654 C 4.843495154642667 -1.6963884766872974 4.904253199870236 -1.7094572373242292 4.957182506237753 -1.739322664810535 C 5.062262959871982 -1.7331765198797857 5.158813309329593 -1.7700533894642891 5.255996897961886 -1.8007841141180432 C 5.275462463394194 -1.8061652478250059 5.293515620568547 -1.8157385065237994 5.308890993729557 -1.828832884620195 C 5.324303152268115 -1.8419801815274086 5.336702778678274 -1.8582928047965104 5.345246372229029 -1.8766610669904003 C 5.35619768501473 -1.878486285788017 5.367595990159031 -1.8797155147741669 5.3790315446665495 -1.8806467488545842 C 5.453530271099891 -1.8677584691816156 5.5197596388991315 -1.9058273183890528 5.590421680921156 -1.9162943894529376 C 5.685165705738058 -1.9087400210879397 5.780450835417379 -1.9207600214786247 5.870350645494435 -1.9516067857823418 L 5.97513310422293 -1.9516067857823418 C 6.052303482177343 -1.9435141829161107 6.127195672809098 -1.9807643013811402 6.1673025690577346 -2.04718865179632 C 6.1912717291278465 -2.0759199290850634 6.218567970793452 -2.1017031862149205 6.248617928959726 -2.1239968387490946 L 6.31838598626455 -1.9973490038124138 C 6.330045775079242 -1.9938504788128828 6.342158344422052 -1.9920932148667752 6.354331621768637 -1.9921340929620803 C 6.429873330372045 -2.004128387917848 6.454904902453647 -2.0873807147071073 6.521544013248272 -2.10950683645781 C 6.566857362473406 -2.116299640562091 6.611790134298291 -2.125425444247609 6.656163211913322 -2.136847869058847 C 6.695461290106907 -2.146383706042313 6.734386874668329 -2.1568135277429814 6.773424207319399 -2.167578593712599 C 6.820364797476348 -2.1737240912615414 6.861670862088857 -2.2016156905204394 6.884911551426894 -2.24285955677349 C 6.875487462533077 -2.2929227009366957 6.863306920761224 -2.3434328374585016 6.8569000302879575 -2.3964759306790406 C 6.847723394075437 -2.4320952828668734 6.862942747435949 -2.469523394411507 6.894372889683928 -2.4886308552770835 C 6.914152301551981 -2.4981666922605514 6.943989041488534 -2.502450369030468 6.9519231558536845 -2.517834356038954 C 6.968850170290949 -2.5576016496493446 6.982406930015521 -2.5987204980786482 6.992450463033421 -2.640757254653968 L 6.870607795951693 -2.7421500213297443 L 6.929387291107599 -2.803574221274035 C 6.9403386038933 -2.8057346843406017 6.959857270218835 -2.803574221274035 6.961384494110719 -2.811024093917369 C 6.986639562371622 -2.8789296830613593 7.009510671386659 -2.947431262016817 7.033238515755678 -3.0162680852412245 C 7.052817485179964 -3.006105495869046 7.073199593069208 -2.997571422578012 7.094178473978152 -2.990752271437805 C 7.141373417173671 -2.9790932207509875 7.167261724609258 -3.0019270804028064 7.169086943406875 -3.0522137207453124 C 7.1721724057911995 -3.0804527635905155 7.160711253631274 -3.1083270712303843 7.138654213658855 -3.126228205456836 C 7.138654213658855 -3.2116409953126626 7.138654213658855 -3.2116409953126626 7.204734584005228 -3.232239893171481 L 7.33663457915546 -3.2221080663765465 C 7.352343438098032 -3.2615737165112457 7.36586070727036 -3.3018768162237735 7.377124636971979 -3.342833252561778 C 7.3787487352715315 -3.3504834566794255 7.3787487352715315 -3.3583894017281133 7.377124636971979 -3.3660396058457627 C 7.375517341236988 -3.3736767641343857 7.372360589209839 -3.380903063955572 7.367849545531029 -3.387271742879265 C 7.363309325499505 -3.3935933953142388 7.357498452071958 -3.398896768879117 7.350789337177795 -3.4028419767038334 C 7.344230277318726 -3.406874766017414 7.33689348911614 -3.409476914082345 7.329259205238561 -3.410478096163251 Z" fill="#ffffff" transform="matrix(1,0,0,1,0,0)" fill-rule="nonzero"></path><path d=" M 7.409978575329086 -3.110583472905835 C 7.403164234278329 -3.111920747666916 7.396136063529246 -3.111704300379354 7.389416926833485 -3.1099502337311513 C 7.375771883958524 -3.1063422118567194 7.364489865615335 -3.0967579729729415 7.358723451542947 -3.083875679479482 C 7.355822867047972 -3.0775088711916 7.354396787660091 -3.0705694670273553 7.35455152286268 -3.063574776526396 C 7.35319838594589 -3.0522042089786288 7.356569860384924 -3.0407764479365604 7.3638782982021915 -3.031961260896851 C 7.3711867360194585 -3.023146073857141 7.381791958959351 -3.0177156218756895 7.393216361881585 -3.0169385737791257 C 7.407028944621313 -3.014158471565438 7.421355847404299 -3.0178190295013776 7.432141946443005 -3.0268841537579756 C 7.442967744125651 -3.0360028913182373 7.449133332846829 -3.0494960976770016 7.448941409253725 -3.0636492752528297 C 7.449733378689346 -3.075024227997121 7.446118871280126 -3.086267880196281 7.438846831822007 -3.095050488444483 C 7.431602175243638 -3.1037754722534148 7.421251385187308 -3.1093448650966273 7.409978575329087 -3.110583472905835 Z" fill="#ffffff" transform="matrix(1,0,0,1,0,0)" fill-rule="nonzero"></path><path d=" M 7.382227799732666 -3.587449820805653 C 7.387107466314051 -3.587449820805653 7.3974627892882845 -3.604323782342805 7.395637570490668 -3.6089427033816723 C 7.3926103159270715 -3.6198811519073186 7.385469242521177 -3.629224612438395 7.375709161169749 -3.6350172576333417 C 7.3660288924751685 -3.640745548954908 7.354495180752849 -3.642469591610968 7.343562960713763 -3.6398224254882927 C 7.3402105180242625 -3.6355014993551586 7.333505632645261 -3.6302865885048248 7.334399617362461 -3.626896896452108 C 7.335987133522457 -3.6155020339461275 7.341796777773179 -3.605119122825276 7.350677589088146 -3.5978051437798877 C 7.359491356444368 -3.5904605812399417 7.370775953101372 -3.5867567821010433 7.382227799732666 -3.587449820805654 Z" fill="#ffffff" transform="matrix(1,0,0,1,0,0)" fill-rule="nonzero"></path><path d=" M 2.5250237455081783 -2.2043992541755486 C 2.6171091708528205 -2.6681151460896393 2.705905831006582 -3.1203203598356497 2.7914137259694645 -3.56101489541358 C 2.8243013778782653 -3.745185746102864 2.859655603680226 -3.938400701067069 2.8974764033753466 -4.140659760306193 C 2.935297203070468 -4.342918819545318 2.9706514288724284 -4.541889113593562 3.003539080781229 -4.737570642450928 C 3.03642673269003 -4.9332521713082915 3.0668478107056707 -5.122356169783896 3.0948023148281516 -5.304882637877741 C 3.122756818950632 -5.487409105971585 3.1449559839890724 -5.654313939408748 3.161399809943473 -5.805597138189232 C 3.2633515308607555 -5.812174668570993 3.3620144865871575 -5.818752198952753 3.4573886771226796 -5.825329729334513 C 3.542896572085562 -5.831907259716273 3.6300488496438836 -5.837662598800312 3.718845509797646 -5.842595746586634 C 3.807642169951408 -5.847528894372953 3.8865725345325295 -5.853284233456993 3.955636603541011 -5.859861763838754 C 3.998390551022452 -5.606626844140987 4.036211350717573 -5.364902602611302 4.069099002626374 -5.134689039249697 C 4.085542828580774 -5.036026083523295 4.102808845832895 -4.9332521713082915 4.120897054382735 -4.826367302604689 C 4.138985262932575 -4.719482433901087 4.156251280184696 -4.616708521686085 4.172695106139097 -4.518045565959682 C 4.189138932093496 -4.41938261023328 4.205582758047897 -4.324830610995478 4.222026584002298 -4.234389568246275 C 4.238470409956697 -4.143948525497073 4.254914235911098 -4.064195969618232 4.271358061865499 -3.99513190060975 C 4.284513122629019 -4.064195969618232 4.29931256598798 -4.143948525497073 4.315756391942379 -4.234389568246275 C 4.33220021789678 -4.324830610995478 4.350288426446621 -4.420204801531 4.370021017591901 -4.520512139852842 C 4.389753608737181 -4.620819478174685 4.410308391180182 -4.723593390389688 4.431685364920902 -4.82883387649785 C 4.453062338661622 -4.934074362606012 4.473617121104623 -5.036026083523295 4.493349712249904 -5.134689039249697 C 4.542681190113106 -5.364902602611302 4.593657050571746 -5.604982461545548 4.646277293625827 -5.854928616052433 L 5.248121323556882 -5.928925832847235 C 5.136303307066958 -5.435611054215224 5.037640351340556 -4.968606397110253 4.952132456377674 -4.527911861532322 C 4.912667274087114 -4.337163480461278 4.874024283094273 -4.144770716794794 4.836203483399151 -3.9507335705328694 C 4.79838268370403 -3.7566964242709444 4.76302845790207 -3.56923680839078 4.730140805993269 -3.388354722892376 C 4.697253154084469 -3.207472637393972 4.669298649961988 -3.040567803956808 4.646277293625827 -2.8876402225808846 C 4.623255937289667 -2.7347126412049607 4.6051677287398265 -2.605628607462918 4.592012667976306 -2.5003881213547556 C 4.582146372403666 -2.5003881213547556 4.543503381410825 -2.492988399675275 4.476083694997783 -2.478188956316315 C 4.408664008584742 -2.4633895129573546 4.33137802659906 -2.4461234957052342 4.244225749040738 -2.4263909045599537 C 4.157073471482416 -2.406658313414673 4.069921193924094 -2.3861035309716727 3.982768916365772 -2.364726557230952 C 3.89561663880745 -2.3433495834902316 3.8306635262875686 -2.326083566238111 3.7879095788061274 -2.312928505474591 C 3.764888222469967 -2.579318485935877 3.7402224835383664 -2.832553405633643 3.7139123620113255 -3.0726332645678887 C 3.7040460664386856 -3.174584985485171 3.6925353882706053 -3.2798254715933335 3.6793803275070847 -3.388354722892376 C 3.666225266743565 -3.4968839741914186 3.6538923972777644 -3.600480077704141 3.642381719109684 -3.699143033430543 C 3.630871040941604 -3.7978059891569456 3.6193603627735236 -3.8907136057993075 3.6078496846054433 -3.9778658833576297 C 3.596339006437363 -4.065018160915952 3.585650519567003 -4.138193186413034 3.5757842239943622 -4.197390959848875 C 3.5659179284217224 -4.138193186413034 3.552762867658202 -4.065840352213671 3.536319041703802 -3.98033245725079 C 3.5198752157494013 -3.8948245622879076 3.5034313897950007 -3.8035613282409857 3.4869875638406005 -3.706542755110023 C 3.4705437378862003 -3.609524181979061 3.4540999119317997 -3.509216843657219 3.4376560859773995 -3.4056207401444967 C 3.421212260022999 -3.3020246366317743 3.4031240514731587 -3.2008951070122116 3.383391460327878 -3.1022321512858095 C 3.3406375128464374 -2.8687298227333238 3.294594800174116 -2.625361198608198 3.245263322310915 -2.3721262789104323 L 2.5250237455081783 -2.2043992541755486" fill="NA" transform="matrix(1,0,0,1,0,0)" fill-rule="nonzero"></path></mask></defs></svg>